<?xml version="1.0" encoding="utf-8"?>
<!-- Generator: Adobe Illustrator 22.1.0, SVG Export Plug-In . SVG Version: 6.00 Build 0)  -->
<svg version="1.1" id="Layer_1" xmlns="http://www.w3.org/2000/svg" xmlns:xlink="http://www.w3.org/1999/xlink" x="0px" y="0px"
	 viewBox="0 0 1366 768" style="enable-background:new 0 0 1366 768;" xml:space="preserve">
<style type="text/css">
	.st0{fill:#FFBC00;}
</style>
<g>
	<path class="st0" d="M941.9,318.9c-4.4-4.2-11.4-2.7-13.5,3c-1.1,3-1.6,8.1-0.8,12.7c0.5,2.9-0.1,6-1.7,8.5
		c-1.8,2.8-4.4,5.3-7.9,3.1c-2-1.2-1.9-5.9-1.6-7.7c3.2-18.9,9-36.9,14.8-55.2c2.2-7,3.4-12.3,3.7-18.1c0.3-5.2-0.3-7.6-5.1-9.8
		c-4.7-2.1-8.6-0.3-11.7,3.5c-2.8,3.3-4.6,7.2-6.2,11.3c-2.9,7.4-4.5,15.3-6,23.2c-9.4-5.1-21-0.2-26.2,3.8
		c-10.9,8.1-16.4,20.9-19.9,34c-1.3,4.8-2.5,16.7-2.5,16.7c-3.2,6.5-11.6,25.3-20.2,21.9c-3.1-1.2-1.4-6.7-0.4-9.9
		c2.6-8.3,6.4-16.1,7.6-24.8c1.5-11.1-3-18.2-13.3-21.1c-4.5-1.3-7.1-2.4-8.1-2.7c-4.7-7.3-11.3-7.1-13.6-6.7
		c-4.8,0.9-8.7,4.2-10.4,8.7c-1.8,4.6-1.5,10.2,1.4,14.3c1.5,2.1,3.6,3.6,6,4.4c-3.2,14-9.5,33.9-19.4,43.9c-1.2,1.2-2.7,3-4.2,2.3
		c-2.3-1-0.9-6.3-0.6-8.1c3.7-19,11.7-29.4-0.4-29.5c-1.7,0-3.5,0.4-5,1.4c-5.4,3.4-8.2,9.8-10.5,15.5c-2.1,5.2-4.2,10.5-7,15.4
		c-1.8,3.1-5.3,10.5-9,11.2c-1.8,0.3-3.7-0.4-4.9-1.8c-1.4-1.6-1.6-3.9-1.6-6.1c-0.2-10,1.7-22,7.9-30.1c5-6.6,13.1-11,21.3-10.5
		c2.1,0.1,4.3,0.6,6.4-0.3c0.9-0.4,1.7-1.1,2.1-2c0.8-2-0.5-3.6-2-4.8c-5.3-4.4-12.9-5.4-19.7-3.7c-18.3,4.4-27.5,20.6-32.3,37.5
		c-1.2,4.2-2,8.9-2.3,13.5c-1.7,6.3-4.2,12.1-9.9,18.1c-3.1,3.4-10.7,8.1-10-2.5c1.1-18.3,6.2-36.3,12.3-53.5
		c6-1.4,10.8-2.5,11.5-2.8c2.4-1.1,4.6-2.6,6.1-4.7c1.2-1.7,1.6-4.6,0.5-6.9c-1.1-2.4-3.4-3.2-5.4-3.4c-1-0.1-3.3,0.1-6.5,0.6
		c1-3.3,1.9-7,1.8-9.7c-0.3-4.7-6-7.6-12.3-3.8c-4.7,2.9-8.1,11.6-10.6,17.1c-0.1,0.3-0.2,0.6-0.4,0.8c-7.7,1.9-14.6,4.1-16.9,5.9
		c-1.3,1-2.5,2.4-3.1,4.3c-0.6,1.9-0.4,4.5,0.8,6.2c1.2,1.6,2.9,2,4.4,2.2c0.9,0.1,4-0.4,8.2-1.2c-2.4,7.7-4.4,15.6-6.1,23.4
		c-0.5,2.3-1.1,5.7-1.6,9.5c-1,1.4-8.7,18.9-10,20.3c0.6-3.4-2.1-12.2-7.6-21c-1.6-2.5-4.8-6.3-6.7-8.5c2.4-3.7,4.8-7.5,6.8-11.4
		c2.2-4.3,3.5-10.3,0.6-14.6c-3.2-4.8-9.1-5.7-14.5-4.6c-10.8,2.3-18.1,13.6-14.9,24.3c1.4,4.6,4,8.6,7,12.4
		c-3.3,5.2-19.8,38.3-31.5,47.9c-6.9,5.6-7.4-2.2-6.8-7.1c0.7-5.2,2-10.5,3.6-15.5c2.8-8.4,3.3-9.8,6.1-18.2
		c1.6-4.7,2.8-9.4,2.5-14.5c-0.3-6.1-4.1-9-9.7-7.5c-3.9,1-7.7,6.7-9.7,10.2c-7.6,13.4-9.9,29.2-19.7,43.8
		c-1.6,2.3-8.7,14.7-13.9,11.9c-4.7-2.4,5.5-26.4,9.5-39.5c6-19.6-8.7-22.6-16.2-10.9c-5,7.7-8.8,21.4-10.4,30.2
		c-0.9,5.1-2.4,12-4.3,18.3c-1.8,3.5-4.1,7-7,10.7c-3.3,4.1-5.9,5.5-7.8,4.3c-1.5-0.9,0.5-7.5,1-9c4-13.8,9.1-27.2,13.7-40.8
		c2.8-8.1,6.1-16.2,5.2-25.3c-0.9-9.2-7.9-14.1-16.4-11.4c-6,1.9-10.8,5.7-15.1,10.4c-8.3,9.2-13.2,20.2-17.9,31.6
		c-3.7,8.9-10.4,29.9-13.9,42.7c0-9.5,3.8-26.2,5.1-31c2.2-8.6,4.2-17.3,3.5-26.3c-1.1-13-8.5-18.5-19.2-13.6
		c-6.8,3.1-11.7,9.6-15.3,16.1c-8.2,14.6-13,30.7-17.4,46.8c-2.2,8-4.3,16-6.8,23.9c-2,6.5-4.5,13.8-8.3,19.5
		c-2.9,4.3-5.8,4-9.9,5.1c-1.6,0.4-2.8,2.1-2.5,3.7c0.3,2,1.9,3.4,3.5,4.4c1.9,1.2,4,2,6.1,2.5c1.2,1.9,2.2,3.7,1.7,4.7
		c-0.8,1.7-2.5,3-2.7,5c-0.2,2.1,1.5,4.4,3.5,5c3,0.9,5.5-1.7,5.7-4.5c0.1-2.8-2.5-4.7-0.5-7.4c0.7-1,1.3-1.8,1.9-2.6
		c0.2-0.3,0.4-0.5,0.6-0.8c11.5-3.8,15.9-14,19-24.3c6.7-22.2,10.6-45.2,18.1-67.1c2-5.8,6-8.2,3.3,3.3c-2.5,10.1-10,44.7-1.8,56
		c9.3,13,20.5-2,24.3-11.7c4.8-12.1,5.6-20.9,10.3-33.4c2.1-5.5,10.9-25.1,15.3-27.7c0.4-0.2,1-0.4,1.3-0.1c0.2,0.2,0.2,0.6,0.1,0.9
		c-0.5,2.9-2,5.3-3,8c-2.8,6.9-5.7,13.8-8.4,20.7c-3.5,9.2-5.9,18.8-5,28.9c0.5,6,2.6,11.8,7.7,14.2c-0.3,3.9,1.7,8.3,6.1,7.7
		c2.2-0.3,3.5-2,4.2-4c0.4-1,0.4-2.3,1-3.2c0.8-1.3,1.3-0.7,2.2,0c0.1,0.1,0.3,0.2,0.5,0.2c1.9,0.2,2.6-1.7,3.2-3.2
		c0.1-0.4,0.3-0.7,0.4-1.1c5.7-4.5,9.8-11,12.1-14.7c1.5,9.2,13.6,15.7,25.6,3.6c5.2-5.3,11.4-15.1,15.9-26.6
		c-1.6,4.1,0.5,11.4,2.5,15.1c1.9,3.5,5,6.3,8.9,7.4c9.9,2.8,21.1-6.1,25.8-15.8c0.1,2.5,5,6.2,9.9,8.5c0,0,0,0.1,0.1,0.1
		c0.7,0.9,3.1,3.6,3.3,3.9c2.2,3.2,6.5,3.6,9.3,0.8c0,0,0,0,0.1,0c0.7,3.8,3.1,6.7,7,6.1c2.5-0.4,4.2-2.6,5.4-4.7
		c1.2-2.3,1.7-4.8,2.7-7.2c6.7-3.8,11-10.1,14.1-15.5c0.3-0.6,4.3-7.5,7.4-14.5c0.4,3.2,1,6.1,2.1,8.7c1.6,3.9,3.9,6.9,6.7,8.9
		c0.2,1.3,0.2,2.7,0.6,3.9c0.7,2,2.4,3.8,4.5,4.2c2.4,0.5,4.4-0.4,5.9-2.3c0.8-1,2.8-5.8,4.4-4.9c0.5,0.3,0.5,0.9,0.9,1.4
		c1.3,1.6,2.9,0.6,3.7-0.7c1.4-2.4,1.6-5.3,2.4-7.5c3.8-4.5,6.6-9.7,8.2-13.5c2.1,7.2,6.3,12.6,12.9,13.5
		c8.4,1.2,15.8-4.4,20.3-12.4c2.5-4.5,5.1-8.6,6.2-14.4c-0.1,0.7-0.2,1.4-0.2,1.8c0.6,7.3,1.5,14.9,8.8,17.3
		c7.2,2.4,12.9-2.5,17.5-7.8c13.4-15.2,21.8-46.7,25.3-58.8c0,0,3.3,0.1,5.3,0.6c2.5,0.7,2,1.9,1.6,3.5c-0.9,3.4-2.1,6.8-3,10.2
		c-2.1,7.8-5.1,15.3-4.2,23.7c0.6,6.4,3.8,11.2,8,13.9c0,0.1,0,0.2,0,0.3c0.6,2.9,2.8,5.1,5.8,5.2c2.5,0.1,4.6-1.2,6.4-2.9
		c0.4-0.4,0.8-0.8,1.2-1.1c1.5-0.5,3-1.2,4.5-2.2c3.1-2,5.6-4.7,7.7-7.8c2.4-3.5,7.5-12.2,7.5-12.2c-2.3,3.5,1.8,14.1,8.3,15.7
		c2.2,0.5,6.7-1.3,8.7-1.3c2.3,0,3.7,2.6,6,2.8c4.2,0.4,9-3.8,11.5-8.2c2.2-3.8,2.8-6.2,3.6-9.8c0.5-2,3-2.4,4.1-0.7
		c1.5,2.4,3.6,4.3,6.3,5.1c6.9,2,12.4-0.6,16.5-5.8c0.2-0.3,0.4-0.5,0.6-0.8c-9.5,23.7-25.5,42.7-52.4,52.9
		c-46.1,17.5-150.9,24-255.7,44.1c-13.1,2.5-83.9,16.1-101.9,39.2c-3.9,5-4.1,13.4,0.8,15.1c4,1.4,7.7,0.1,11.1-2.1
		c0.9,0.2,1.8,0.1,2.7-0.1c1.7-0.4,3.4-1.1,4.8-2.1c0.6-0.4,1.2-0.7,1.9-0.7c2.7,0,4.1,2.8,7.6,2.2c5-0.9,6.2-3.5,8.2-7.7
		c0.3-0.7,0.6-1.3,0.9-2c0.6-1.5,1.6-2.8,2.9-3.8c1.2-0.9,2.4-1.7,3.6-2.4c3-1.7,6-2.8,9.8-4.2c3.8-1.2,7.9-2.4,12.5-3.7
		c3.6,1.4,7.1,3.7,11.4,1.9c2.7-1.1,4.3-3.5,6.5-5.2c1.6-1.3,3.3-2,5-2.6c0.2,0,0.4-0.1,0.7-0.1c1.4,0,6.3,0.5,6.8,5.1
		c0.4,3.4,3.2,5.2,6.7,3.9c3.8-1.3,4.8-4.7,5.9-8.2c0.6-1.8,1.5-3,2.8-3.8c1-0.7,2.4-0.2,2.9,0.9c0.4,1.2,0.8,2.2,1.2,2.6
		c1.7,2,4.1,2.8,6.7,2.3c2.5-0.6,4.3-2.5,5.6-4.6c2.4-3.6,4.8-5.9,9.5-7.2c0.6-0.2,1-0.4,1.4-0.6c30.2-4.7,69.5-9.9,107.5-15.6
		c1.5,1.4,3,2.7,5.1,3.2c3.7,0.9,7.3-0.6,10.4-2.5c1.5-0.9,2.9-2.3,4.6-3c2.3-0.9,4.6-0.3,7-0.4c3.2-0.2,6-1.6,8.8-3
		c30.6-5.1,57.8-10.5,75.5-16.2c37.8-12.3,60.1-44.2,67.1-87.9l0,0c0.6-3.6,1.5-7.1,2.9-10.5l0.2-0.6
		C944.6,329.3,946.4,323.2,941.9,318.9z M654.8,351.1c0.2-1,0.7-2,1.5-3c0.6-0.6,1.3-1.2,2.1-1.4c0.8-0.2,1.8-0.1,2.4,0.6
		c0.9,0.9,0.8,2.4,0.3,3.6c-0.3,0.7-4.4,6.5-4.2,6.8C655.6,355.6,654.4,353.4,654.8,351.1z M654.3,379.7c-0.1,0.1,6.8,12.6,6.8,18.6
		c0,4.1-1.6,7.8-4.4,10c-2.2,1.7-5,2.5-8.4,1.9c-3.8-0.6-6.3-3.7-10.2-4.4C639.5,403.7,649.9,386.3,654.3,379.7z M903.3,310.5
		c-1.9,17.2-6.1,35-16.6,43.9c-1.4,1.2-6.8,4.1-9.7,1.2c-1.4-1.4-2.4-3.2-2.5-4.9c-1.6-15.2,3.6-31.3,15.2-41.2
		c1.9-1.6,4.7-3,8.6-3.7C901.2,305.3,903.6,307.7,903.3,310.5z"/>
	<path class="st0" d="M620.3,497.7c-0.9-1.2-2.7-1.7-4.2-1.8c-1.9,0-3.5,0.8-4.4,2.6c-1,1.9,0.3,5.3,2.4,5.8
		c3.5,0.9,7.4-1.4,6.8-5.3C620.8,498.5,620.6,498.1,620.3,497.7z"/>
</g>
</svg>
